<svg width="65" height="65" viewBox="0 0 65 65" fill="none" xmlns="http://www.w3.org/2000/svg">
<circle cx="32.5" cy="32.5" r="32.5" fill="#ADFFD3"/>
<path d="M32.5 18C29.6322 18 26.8287 18.8504 24.4442 20.4437C22.0597 22.037 20.2012 24.3016 19.1038 26.9511C18.0063 29.6006 17.7191 32.5161 18.2786 35.3288C18.8381 38.1415 20.2191 40.7252 22.247 42.753C24.2748 44.7809 26.8585 46.1619 29.6712 46.7214C32.4839 47.2809 35.3994 46.9937 38.0489 45.8962C40.6984 44.7988 42.963 42.9403 44.5563 40.5558C46.1496 38.1713 47 35.3678 47 32.5C47.0016 30.5954 46.6276 28.7092 45.8994 26.9492C45.1713 25.1893 44.1033 23.5902 42.7565 22.2435C41.4098 20.8967 39.8107 19.8287 38.0508 19.1006C36.2908 18.3724 34.4046 17.9984 32.5 18ZM32.5 43.5882C30.307 43.5882 28.1632 42.9379 26.3397 41.7195C24.5163 40.5011 23.0951 38.7694 22.2558 36.7433C21.4166 34.7172 21.197 32.4877 21.6248 30.3368C22.0527 28.1859 23.1087 26.2102 24.6594 24.6594C26.2102 23.1087 28.1859 22.0527 30.3368 21.6248C32.4877 21.197 34.7172 21.4166 36.7433 22.2558C38.7694 23.0951 40.5011 24.5163 41.7195 26.3397C42.9379 28.1632 43.5882 30.307 43.5882 32.5C43.5912 33.9569 43.3063 35.4001 42.7501 36.7467C42.1939 38.0933 41.3773 39.3169 40.3471 40.3471C39.3169 41.3773 38.0933 42.1939 36.7467 42.7501C35.4001 43.3063 33.9569 43.5912 32.5 43.5882ZM36.7647 27.9794L31.8176 33.95L28.4059 31.4765C27.6382 30.8794 26.6147 31.05 26.0176 31.8176C25.4206 32.5853 25.5912 33.6088 26.3588 34.2059C27.3824 34.9735 28.4912 35.7412 29.5147 36.5088C30.2824 37.0206 30.9647 37.7882 31.9029 37.8735C32.1588 37.8735 32.5 37.8735 32.7559 37.7029L33.2676 37.1912L37.1059 32.5853C37.7882 31.7324 38.4706 30.9647 39.1529 30.1118C39.6647 29.4294 39.8353 28.5765 39.2382 27.8941L38.9824 27.6382C38.3853 27.2118 37.3618 27.2971 36.7647 27.9794Z" fill="#00AC4F"/>
</svg>
