<svg width="40" height="40" viewBox="0 0 40 40" fill="none" xmlns="http://www.w3.org/2000/svg">
<circle cx="20" cy="20" r="20" fill="#CAF1FF"/>
<g clip-path="url(#clip0_4_58)">
<path d="M19.9972 11.0759C15.0658 11.0759 11.0703 15.0742 11.0703 20.0028C11.0703 24.9314 15.0686 28.9297 19.9972 28.9297C24.9285 28.9297 28.9241 24.9314 28.9241 20.0028C28.9241 15.0742 24.9258 11.0759 19.9972 11.0759ZM19.9972 26.9495C16.1671 26.9495 13.0532 23.8356 13.0532 20.0055C13.0532 16.1754 16.1671 13.0615 19.9972 13.0615C23.8273 13.0615 26.9412 16.1754 26.9412 20.0055C26.9412 23.8356 23.8245 26.9495 19.9972 26.9495Z" fill="#0F5FC2"/>
<path d="M20.9926 16.0316H19.0071V20.4096L22.2757 23.6782L23.678 22.2758L20.9926 19.5904V16.0316Z" fill="#0F5FC2"/>
</g>
<defs>
<clipPath id="clip0_4_58">
<rect width="17.8462" height="17.8462" fill="white" transform="translate(11.0769 11.0769)"/>
</clipPath>
</defs>
</svg>
