<svg width="700" height="700" viewBox="0 0 700 700" fill="none" xmlns="http://www.w3.org/2000/svg">
<path fill-rule="evenodd" clip-rule="evenodd" d="M0 350C0 156.7 156.7 0 350 0C543.299 0 700 156.7 700 350C700 543.299 543.299 700 350 700C156.7 700 0 543.299 0 350ZM554.139 276.947C566.539 264.494 566.494 244.348 554.04 231.949L531.494 209.499C519.04 197.1 498.896 197.144 486.497 209.596L302.855 394.03L197.185 289.829C184.672 277.492 164.526 277.633 152.188 290.147L129.847 312.801C117.509 325.312 117.65 345.46 130.163 357.799L280.927 506.463C293.395 518.76 313.457 518.668 325.815 506.259L554.139 276.947Z" fill="#00AC4F"/>
</svg>
