<svg width="700" height="700" viewBox="0 0 700 700" fill="none" xmlns="http://www.w3.org/2000/svg">
<path d="M350 0C442.826 0 531.85 36.8749 597.487 102.513C663.125 168.15 700 257.174 700 350C700 442.826 663.125 531.85 597.487 597.487C531.85 663.125 442.826 700 350 700C257.174 700 168.15 663.125 102.513 597.487C36.8749 531.85 0 442.826 0 350C0 257.174 36.8749 168.15 102.513 102.513C168.15 36.8749 257.174 0 350 0ZM350 150C343.652 149.995 337.373 151.313 331.563 153.872C325.753 156.43 320.541 160.172 316.259 164.858C311.978 169.545 308.72 175.073 306.695 181.089C304.671 187.106 303.923 193.478 304.5 199.8L322.75 400.1C323.458 406.834 326.634 413.068 331.665 417.599C336.697 422.13 343.229 424.637 350 424.637C356.771 424.637 363.303 422.13 368.335 417.599C373.366 413.068 376.542 406.834 377.25 400.1L395.45 199.8C396.027 193.482 395.28 187.114 393.259 181.101C391.237 175.088 387.984 169.563 383.707 164.877C379.431 160.191 374.225 156.448 368.421 153.887C362.618 151.325 356.344 150.002 350 150ZM350 550C360.609 550 370.783 545.786 378.284 538.284C385.786 530.783 390 520.609 390 510C390 499.391 385.786 489.217 378.284 481.716C370.783 474.214 360.609 470 350 470C339.391 470 329.217 474.214 321.716 481.716C314.214 489.217 310 499.391 310 510C310 520.609 314.214 530.783 321.716 538.284C329.217 545.786 339.391 550 350 550Z" fill="#FE8084"/>
</svg>
