<svg width="27" height="27" viewBox="0 0 27 27" fill="none" xmlns="http://www.w3.org/2000/svg">
<g clip-path="url(#clip0_7_223)">
<path d="M9.875 19.8438C9.3745 19.8438 8.96875 20.2495 8.96875 20.75C8.96875 21.2505 9.3745 21.6562 9.875 21.6562H17.125C17.6255 21.6562 18.0312 21.2505 18.0312 20.75C18.0312 20.2495 17.6255 19.8438 17.125 19.8438H9.875Z" fill="#006954"/>
<path fill-rule="evenodd" clip-rule="evenodd" d="M13.5001 0.510376C12.6445 0.510376 11.867 0.75545 11.0237 1.16558C10.2084 1.56205 9.26659 2.14657 8.0902 2.87668L5.59309 4.42646C4.47998 5.11728 3.58865 5.67044 2.90167 6.19656C2.19026 6.74138 1.64385 7.29624 1.24916 8.0173C0.855296 8.73685 0.677937 9.50248 0.592895 10.4075C0.510486 11.2845 0.510486 12.357 0.510498 13.702V15.6507C0.510486 17.9511 0.510474 19.7671 0.695011 21.1869C0.88432 22.6434 1.28209 23.8192 2.18085 24.7488C3.08374 25.6829 4.23272 26.1001 5.65511 26.2979C7.03367 26.4895 8.7943 26.4895 11.0131 26.4895H15.987C18.2058 26.4895 19.9665 26.4895 21.3451 26.2979C22.7674 26.1001 23.9164 25.6829 24.8193 24.7488C25.718 23.8192 26.1158 22.6434 26.3051 21.1869C26.4897 19.7671 26.4897 17.9512 26.4897 15.6507V13.702C26.4897 12.357 26.4897 11.2845 26.4073 10.4075C26.3222 9.50248 26.1448 8.73685 25.751 8.0173C25.3564 7.29624 24.81 6.74138 24.0985 6.19656C23.4116 5.67044 22.5202 5.11729 21.407 4.42648L18.9099 2.87667C17.7336 2.14657 16.7917 1.56204 15.9764 1.16558C15.1331 0.75545 14.3557 0.510376 13.5001 0.510376ZM9.00451 4.44244C10.2319 3.68069 11.0949 3.14639 11.8163 2.79558C12.5192 2.45377 13.017 2.32288 13.5001 2.32288C13.9832 2.32288 14.481 2.45377 15.1839 2.79556C15.9053 3.14639 16.7683 3.68069 17.9957 4.44244L20.4124 5.94228C21.5733 6.66283 22.3885 7.16992 22.9965 7.63555C23.5881 8.08861 23.9284 8.46249 24.1611 8.88757C24.3947 9.31416 24.531 9.81291 24.6027 10.577C24.6762 11.3595 24.6772 12.347 24.6772 13.7463V15.5843C24.6772 17.9658 24.6754 19.6639 24.5078 20.9533C24.3432 22.2197 24.0331 22.9544 23.5162 23.4891C23.0035 24.0195 22.3053 24.3344 21.0954 24.5027C19.8562 24.675 18.2216 24.677 15.9167 24.677H11.0834C8.77848 24.677 7.14404 24.675 5.90476 24.5027C4.69479 24.3344 3.99671 24.0195 3.48395 23.4891C2.96705 22.9544 2.65701 22.2197 2.49239 20.9533C2.3248 19.6639 2.323 17.9658 2.323 15.5843V13.7463C2.323 12.347 2.32392 11.3595 2.39744 10.577C2.46924 9.81291 2.60557 9.31416 2.83907 8.88757C3.07174 8.46249 3.41211 8.08861 4.00369 7.63555C4.6117 7.16992 5.42683 6.66283 6.58785 5.94228L9.00451 4.44244Z" fill="#006954"/>
</g>
<defs>
<clipPath id="clip0_7_223">
<rect width="27" height="27" fill="white"/>
</clipPath>
</defs>
</svg>
