<svg width="27" height="27" viewBox="0 0 27 27" fill="none" xmlns="http://www.w3.org/2000/svg">
<path d="M16.875 13.5H2.25M2.25 13.5L6.1875 10.125M2.25 13.5L6.1875 16.875" stroke="#006954" stroke-width="2" stroke-linecap="round" stroke-linejoin="round"/>
<path d="M10.1272 7.875C10.1408 5.42809 10.2493 4.10294 11.1138 3.23851C12.1023 2.25 13.6933 2.25 16.8752 2.25H18.0002C21.1822 2.25 22.7733 2.25 23.7617 3.23851C24.7502 4.22703 24.7502 5.81802 24.7502 9V18C24.7502 21.1819 24.7502 22.7729 23.7617 23.7615C22.8972 24.6259 21.5721 24.7345 19.125 24.7481M10.1272 19.125C10.1408 21.5719 10.2493 22.897 11.1138 23.7615C11.8352 24.4829 12.8775 24.6779 14.625 24.7305" stroke="#006954" stroke-width="2" stroke-linecap="round"/>
</svg>
