<svg width="20" height="20" viewBox="0 0 20 20" fill="none" xmlns="http://www.w3.org/2000/svg">
<mask id="mask0_7_1012" style="mask-type:alpha" maskUnits="userSpaceOnUse" x="0" y="0" width="20" height="20">
<rect width="20" height="20" fill="#D9D9D9"/>
</mask>
<g mask="url(#mask0_7_1012)">
<path d="M1.22917 10.4998C1.07639 10.3471 1 10.17 1 9.96859C1 9.7672 1.07639 9.59012 1.22917 9.43734C1.38194 9.28456 1.55903 9.20817 1.76042 9.20817C1.96181 9.20817 2.13889 9.28456 2.29167 9.43734L5.27083 12.4165C5.42361 12.5693 5.5 12.7464 5.5 12.9478C5.5 13.1491 5.42361 13.3262 5.27083 13.479C5.11806 13.6318 4.94097 13.7082 4.73958 13.7082C4.53819 13.7082 4.36111 13.6318 4.20833 13.479L1.22917 10.4998ZM8.97917 11.8748L15.2083 5.64567C15.3611 5.49289 15.5382 5.4165 15.7396 5.4165C15.941 5.4165 16.1181 5.49289 16.2708 5.64567C16.4236 5.79845 16.5 5.97553 16.5 6.17692C16.5 6.37831 16.4236 6.55539 16.2708 6.70817L9.5 13.479C9.34722 13.6318 9.17014 13.7047 8.96875 13.6978C8.76736 13.6908 8.59028 13.6109 8.4375 13.4582L5.47917 10.479C5.32639 10.3262 5.25 10.1526 5.25 9.95817C5.25 9.76373 5.32639 9.59012 5.47917 9.43734C5.63194 9.28456 5.80903 9.20817 6.01042 9.20817C6.21181 9.20817 6.38889 9.28456 6.54167 9.43734L8.97917 11.8748ZM12.0208 6.70817L9.5 9.229C9.34722 9.38178 9.17361 9.45817 8.97917 9.45817C8.78472 9.45817 8.61111 9.38178 8.45833 9.229C8.30556 9.07623 8.22917 8.89914 8.22917 8.69775C8.22917 8.49637 8.30556 8.31928 8.45833 8.1665L10.9583 5.64567C11.1111 5.49289 11.2882 5.4165 11.4896 5.4165C11.691 5.4165 11.8681 5.49289 12.0208 5.64567C12.1736 5.79845 12.25 5.97553 12.25 6.17692C12.25 6.37831 12.1736 6.55539 12.0208 6.70817Z" fill="#226CF4"/>
</g>
</svg>
